<mxfile host="app.diagrams.net" modified="2020-09-18T08:46:16.716Z" agent="5.0 (Windows NT 10.0; Win64; x64) AppleWebKit/537.36 (KHTML, like Gecko) Chrome/85.0.4183.102 Safari/537.36" etag="O1S5v5dU4tnQY9mhXBQX" version="13.7.3" type="github" pages="2">
  <diagram id="ia_lg7AgKB0AyjlXaB-6" name="star schema">
    <mxGraphModel dx="1349" dy="619" grid="1" gridSize="10" guides="1" tooltips="1" connect="1" arrows="1" fold="1" page="1" pageScale="1" pageWidth="1169" pageHeight="827" math="0" shadow="0">
      <root>
        <mxCell id="0" />
        <mxCell id="1" parent="0" />
        <mxCell id="kuZEhnjZyDIAACLL1wqr-193" value="" style="endArrow=none;html=1;rounded=0;entryX=0;entryY=0.5;entryDx=0;entryDy=0;exitX=1;exitY=0.5;exitDx=0;exitDy=0;" parent="1" source="kuZEhnjZyDIAACLL1wqr-139" target="kuZEhnjZyDIAACLL1wqr-8" edge="1">
          <mxGeometry relative="1" as="geometry">
            <mxPoint x="370" y="389.17" as="sourcePoint" />
            <mxPoint x="530" y="389.17" as="targetPoint" />
          </mxGeometry>
        </mxCell>
        <mxCell id="kuZEhnjZyDIAACLL1wqr-194" value="" style="endArrow=none;html=1;rounded=0;exitX=0.5;exitY=1;exitDx=0;exitDy=0;entryX=0.5;entryY=0;entryDx=0;entryDy=0;" parent="1" source="kuZEhnjZyDIAACLL1wqr-111" target="kuZEhnjZyDIAACLL1wqr-1" edge="1">
          <mxGeometry relative="1" as="geometry">
            <mxPoint x="619.17" y="220" as="sourcePoint" />
            <mxPoint x="619" y="280" as="targetPoint" />
          </mxGeometry>
        </mxCell>
        <mxCell id="kuZEhnjZyDIAACLL1wqr-111" value="Anggota" style="shape=table;startSize=30;container=1;collapsible=1;childLayout=tableLayout;fixedRows=1;rowLines=0;fontStyle=1;align=center;resizeLast=1;rounded=0;" parent="1" vertex="1">
          <mxGeometry x="530" y="30" width="180" height="220" as="geometry">
            <mxRectangle x="590" y="30" width="80" height="30" as="alternateBounds" />
          </mxGeometry>
        </mxCell>
        <mxCell id="kuZEhnjZyDIAACLL1wqr-112" value="" style="shape=partialRectangle;collapsible=0;dropTarget=0;pointerEvents=0;fillColor=none;top=0;left=0;bottom=1;right=0;points=[[0,0.5],[1,0.5]];portConstraint=eastwest;" parent="kuZEhnjZyDIAACLL1wqr-111" vertex="1">
          <mxGeometry y="30" width="180" height="30" as="geometry" />
        </mxCell>
        <mxCell id="kuZEhnjZyDIAACLL1wqr-113" value="PK" style="shape=partialRectangle;connectable=0;fillColor=none;top=0;left=0;bottom=0;right=0;fontStyle=1;overflow=hidden;" parent="kuZEhnjZyDIAACLL1wqr-112" vertex="1">
          <mxGeometry width="30" height="30" as="geometry" />
        </mxCell>
        <mxCell id="kuZEhnjZyDIAACLL1wqr-114" value="id_anggota" style="shape=partialRectangle;connectable=0;fillColor=none;top=0;left=0;bottom=0;right=0;align=left;spacingLeft=6;fontStyle=5;overflow=hidden;" parent="kuZEhnjZyDIAACLL1wqr-112" vertex="1">
          <mxGeometry x="30" width="150" height="30" as="geometry" />
        </mxCell>
        <mxCell id="kuZEhnjZyDIAACLL1wqr-115" value="" style="shape=partialRectangle;collapsible=0;dropTarget=0;pointerEvents=0;fillColor=none;top=0;left=0;bottom=0;right=0;points=[[0,0.5],[1,0.5]];portConstraint=eastwest;" parent="kuZEhnjZyDIAACLL1wqr-111" vertex="1">
          <mxGeometry y="60" width="180" height="30" as="geometry" />
        </mxCell>
        <mxCell id="kuZEhnjZyDIAACLL1wqr-116" value="" style="shape=partialRectangle;connectable=0;fillColor=none;top=0;left=0;bottom=0;right=0;editable=1;overflow=hidden;" parent="kuZEhnjZyDIAACLL1wqr-115" vertex="1">
          <mxGeometry width="30" height="30" as="geometry" />
        </mxCell>
        <mxCell id="kuZEhnjZyDIAACLL1wqr-117" value="nama_anggota" style="shape=partialRectangle;connectable=0;fillColor=none;top=0;left=0;bottom=0;right=0;align=left;spacingLeft=6;overflow=hidden;" parent="kuZEhnjZyDIAACLL1wqr-115" vertex="1">
          <mxGeometry x="30" width="150" height="30" as="geometry" />
        </mxCell>
        <mxCell id="kuZEhnjZyDIAACLL1wqr-118" value="" style="shape=partialRectangle;collapsible=0;dropTarget=0;pointerEvents=0;fillColor=none;top=0;left=0;bottom=0;right=0;points=[[0,0.5],[1,0.5]];portConstraint=eastwest;" parent="kuZEhnjZyDIAACLL1wqr-111" vertex="1">
          <mxGeometry y="90" width="180" height="30" as="geometry" />
        </mxCell>
        <mxCell id="kuZEhnjZyDIAACLL1wqr-119" value="" style="shape=partialRectangle;connectable=0;fillColor=none;top=0;left=0;bottom=0;right=0;editable=1;overflow=hidden;" parent="kuZEhnjZyDIAACLL1wqr-118" vertex="1">
          <mxGeometry width="30" height="30" as="geometry" />
        </mxCell>
        <mxCell id="kuZEhnjZyDIAACLL1wqr-120" value="no_identitas_anggota" style="shape=partialRectangle;connectable=0;fillColor=none;top=0;left=0;bottom=0;right=0;align=left;spacingLeft=6;overflow=hidden;" parent="kuZEhnjZyDIAACLL1wqr-118" vertex="1">
          <mxGeometry x="30" width="150" height="30" as="geometry" />
        </mxCell>
        <mxCell id="kuZEhnjZyDIAACLL1wqr-121" value="" style="shape=partialRectangle;collapsible=0;dropTarget=0;pointerEvents=0;fillColor=none;top=0;left=0;bottom=0;right=0;points=[[0,0.5],[1,0.5]];portConstraint=eastwest;" parent="kuZEhnjZyDIAACLL1wqr-111" vertex="1">
          <mxGeometry y="120" width="180" height="30" as="geometry" />
        </mxCell>
        <mxCell id="kuZEhnjZyDIAACLL1wqr-122" value="" style="shape=partialRectangle;connectable=0;fillColor=none;top=0;left=0;bottom=0;right=0;editable=1;overflow=hidden;" parent="kuZEhnjZyDIAACLL1wqr-121" vertex="1">
          <mxGeometry width="30" height="30" as="geometry" />
        </mxCell>
        <mxCell id="kuZEhnjZyDIAACLL1wqr-123" value="alamat_anggota" style="shape=partialRectangle;connectable=0;fillColor=none;top=0;left=0;bottom=0;right=0;align=left;spacingLeft=6;overflow=hidden;" parent="kuZEhnjZyDIAACLL1wqr-121" vertex="1">
          <mxGeometry x="30" width="150" height="30" as="geometry" />
        </mxCell>
        <mxCell id="kuZEhnjZyDIAACLL1wqr-125" value="" style="shape=partialRectangle;collapsible=0;dropTarget=0;pointerEvents=0;fillColor=none;top=0;left=0;bottom=0;right=0;points=[[0,0.5],[1,0.5]];portConstraint=eastwest;" parent="kuZEhnjZyDIAACLL1wqr-111" vertex="1">
          <mxGeometry y="150" width="180" height="30" as="geometry" />
        </mxCell>
        <mxCell id="kuZEhnjZyDIAACLL1wqr-126" value="" style="shape=partialRectangle;connectable=0;fillColor=none;top=0;left=0;bottom=0;right=0;editable=1;overflow=hidden;" parent="kuZEhnjZyDIAACLL1wqr-125" vertex="1">
          <mxGeometry width="30" height="30" as="geometry" />
        </mxCell>
        <mxCell id="kuZEhnjZyDIAACLL1wqr-127" value="no_hp_anggota" style="shape=partialRectangle;connectable=0;fillColor=none;top=0;left=0;bottom=0;right=0;align=left;spacingLeft=6;overflow=hidden;" parent="kuZEhnjZyDIAACLL1wqr-125" vertex="1">
          <mxGeometry x="30" width="150" height="30" as="geometry" />
        </mxCell>
        <mxCell id="kuZEhnjZyDIAACLL1wqr-129" value="" style="shape=partialRectangle;collapsible=0;dropTarget=0;pointerEvents=0;fillColor=none;top=0;left=0;bottom=0;right=0;points=[[0,0.5],[1,0.5]];portConstraint=eastwest;" parent="kuZEhnjZyDIAACLL1wqr-111" vertex="1">
          <mxGeometry y="180" width="180" height="30" as="geometry" />
        </mxCell>
        <mxCell id="kuZEhnjZyDIAACLL1wqr-130" value="" style="shape=partialRectangle;connectable=0;fillColor=none;top=0;left=0;bottom=0;right=0;editable=1;overflow=hidden;" parent="kuZEhnjZyDIAACLL1wqr-129" vertex="1">
          <mxGeometry width="30" height="30" as="geometry" />
        </mxCell>
        <mxCell id="kuZEhnjZyDIAACLL1wqr-131" value="email_anggota" style="shape=partialRectangle;connectable=0;fillColor=none;top=0;left=0;bottom=0;right=0;align=left;spacingLeft=6;overflow=hidden;" parent="kuZEhnjZyDIAACLL1wqr-129" vertex="1">
          <mxGeometry x="30" width="150" height="30" as="geometry" />
        </mxCell>
        <mxCell id="kuZEhnjZyDIAACLL1wqr-1" value="Peminjaman" style="shape=table;startSize=30;container=1;collapsible=1;childLayout=tableLayout;fixedRows=1;rowLines=0;fontStyle=1;align=center;resizeLast=1;fillColor=#f8cecc;strokeColor=#b85450;" parent="1" vertex="1">
          <mxGeometry x="530" y="295" width="180" height="275" as="geometry">
            <mxRectangle x="540" y="282.5" width="100" height="30" as="alternateBounds" />
          </mxGeometry>
        </mxCell>
        <mxCell id="kuZEhnjZyDIAACLL1wqr-2" value="" style="shape=partialRectangle;collapsible=0;dropTarget=0;pointerEvents=0;fillColor=none;top=0;left=0;bottom=1;right=0;points=[[0,0.5],[1,0.5]];portConstraint=eastwest;" parent="kuZEhnjZyDIAACLL1wqr-1" vertex="1">
          <mxGeometry y="30" width="180" height="30" as="geometry" />
        </mxCell>
        <mxCell id="kuZEhnjZyDIAACLL1wqr-3" value="PK" style="shape=partialRectangle;connectable=0;fillColor=#f8cecc;top=0;left=0;bottom=0;right=0;fontStyle=1;overflow=hidden;strokeColor=#b85450;" parent="kuZEhnjZyDIAACLL1wqr-2" vertex="1">
          <mxGeometry width="30" height="30" as="geometry" />
        </mxCell>
        <mxCell id="kuZEhnjZyDIAACLL1wqr-4" value="id_peminjaman" style="shape=partialRectangle;connectable=0;fillColor=#f8cecc;top=0;left=0;bottom=0;right=0;align=left;spacingLeft=6;fontStyle=5;overflow=hidden;strokeColor=#b85450;" parent="kuZEhnjZyDIAACLL1wqr-2" vertex="1">
          <mxGeometry x="30" width="150" height="30" as="geometry" />
        </mxCell>
        <mxCell id="kuZEhnjZyDIAACLL1wqr-5" value="" style="shape=partialRectangle;collapsible=0;dropTarget=0;pointerEvents=0;fillColor=none;top=0;left=0;bottom=0;right=0;points=[[0,0.5],[1,0.5]];portConstraint=eastwest;" parent="kuZEhnjZyDIAACLL1wqr-1" vertex="1">
          <mxGeometry y="60" width="180" height="30" as="geometry" />
        </mxCell>
        <mxCell id="kuZEhnjZyDIAACLL1wqr-6" value="FK" style="shape=partialRectangle;connectable=0;fillColor=#f8cecc;top=0;left=0;bottom=0;right=0;editable=1;overflow=hidden;strokeColor=#b85450;" parent="kuZEhnjZyDIAACLL1wqr-5" vertex="1">
          <mxGeometry width="30" height="30" as="geometry" />
        </mxCell>
        <mxCell id="kuZEhnjZyDIAACLL1wqr-7" value="id_anggota" style="shape=partialRectangle;connectable=0;fillColor=#f8cecc;top=0;left=0;bottom=0;right=0;align=left;spacingLeft=6;overflow=hidden;strokeColor=#b85450;" parent="kuZEhnjZyDIAACLL1wqr-5" vertex="1">
          <mxGeometry x="30" width="150" height="30" as="geometry" />
        </mxCell>
        <mxCell id="kuZEhnjZyDIAACLL1wqr-8" value="" style="shape=partialRectangle;collapsible=0;dropTarget=0;pointerEvents=0;fillColor=none;top=0;left=0;bottom=0;right=0;points=[[0,0.5],[1,0.5]];portConstraint=eastwest;" parent="kuZEhnjZyDIAACLL1wqr-1" vertex="1">
          <mxGeometry y="90" width="180" height="30" as="geometry" />
        </mxCell>
        <mxCell id="kuZEhnjZyDIAACLL1wqr-9" value="FK" style="shape=partialRectangle;connectable=0;fillColor=#f8cecc;top=0;left=0;bottom=0;right=0;editable=1;overflow=hidden;strokeColor=#b85450;" parent="kuZEhnjZyDIAACLL1wqr-8" vertex="1">
          <mxGeometry width="30" height="30" as="geometry" />
        </mxCell>
        <mxCell id="kuZEhnjZyDIAACLL1wqr-10" value="id_buku" style="shape=partialRectangle;connectable=0;fillColor=#f8cecc;top=0;left=0;bottom=0;right=0;align=left;spacingLeft=6;overflow=hidden;strokeColor=#b85450;" parent="kuZEhnjZyDIAACLL1wqr-8" vertex="1">
          <mxGeometry x="30" width="150" height="30" as="geometry" />
        </mxCell>
        <mxCell id="kuZEhnjZyDIAACLL1wqr-11" value="" style="shape=partialRectangle;collapsible=0;dropTarget=0;pointerEvents=0;fillColor=none;top=0;left=0;bottom=0;right=0;points=[[0,0.5],[1,0.5]];portConstraint=eastwest;" parent="kuZEhnjZyDIAACLL1wqr-1" vertex="1">
          <mxGeometry y="120" width="180" height="30" as="geometry" />
        </mxCell>
        <mxCell id="kuZEhnjZyDIAACLL1wqr-12" value="FK" style="shape=partialRectangle;connectable=0;fillColor=#f8cecc;top=0;left=0;bottom=0;right=0;editable=1;overflow=hidden;strokeColor=#b85450;" parent="kuZEhnjZyDIAACLL1wqr-11" vertex="1">
          <mxGeometry width="30" height="30" as="geometry" />
        </mxCell>
        <mxCell id="kuZEhnjZyDIAACLL1wqr-13" value="id_petugas" style="shape=partialRectangle;connectable=0;fillColor=#f8cecc;top=0;left=0;bottom=0;right=0;align=left;spacingLeft=6;overflow=hidden;strokeColor=#b85450;" parent="kuZEhnjZyDIAACLL1wqr-11" vertex="1">
          <mxGeometry x="30" width="150" height="30" as="geometry" />
        </mxCell>
        <mxCell id="kuZEhnjZyDIAACLL1wqr-81" value="" style="shape=partialRectangle;collapsible=0;dropTarget=0;pointerEvents=0;fillColor=none;top=0;left=0;bottom=0;right=0;points=[[0,0.5],[1,0.5]];portConstraint=eastwest;" parent="kuZEhnjZyDIAACLL1wqr-1" vertex="1">
          <mxGeometry y="150" width="180" height="30" as="geometry" />
        </mxCell>
        <mxCell id="kuZEhnjZyDIAACLL1wqr-82" value="" style="shape=partialRectangle;connectable=0;fillColor=#f8cecc;top=0;left=0;bottom=0;right=0;editable=1;overflow=hidden;strokeColor=#b85450;" parent="kuZEhnjZyDIAACLL1wqr-81" vertex="1">
          <mxGeometry width="30" height="30" as="geometry" />
        </mxCell>
        <mxCell id="kuZEhnjZyDIAACLL1wqr-83" value="tgl_pinjam" style="shape=partialRectangle;connectable=0;fillColor=#f8cecc;top=0;left=0;bottom=0;right=0;align=left;spacingLeft=6;overflow=hidden;strokeColor=#b85450;" parent="kuZEhnjZyDIAACLL1wqr-81" vertex="1">
          <mxGeometry x="30" width="150" height="30" as="geometry" />
        </mxCell>
        <mxCell id="kuZEhnjZyDIAACLL1wqr-85" value="" style="shape=partialRectangle;collapsible=0;dropTarget=0;pointerEvents=0;fillColor=none;top=0;left=0;bottom=0;right=0;points=[[0,0.5],[1,0.5]];portConstraint=eastwest;" parent="kuZEhnjZyDIAACLL1wqr-1" vertex="1">
          <mxGeometry y="180" width="180" height="30" as="geometry" />
        </mxCell>
        <mxCell id="kuZEhnjZyDIAACLL1wqr-86" value="" style="shape=partialRectangle;connectable=0;fillColor=#f8cecc;top=0;left=0;bottom=0;right=0;editable=1;overflow=hidden;strokeColor=#b85450;" parent="kuZEhnjZyDIAACLL1wqr-85" vertex="1">
          <mxGeometry width="30" height="30" as="geometry" />
        </mxCell>
        <mxCell id="kuZEhnjZyDIAACLL1wqr-87" value="tgl_kembali" style="shape=partialRectangle;connectable=0;fillColor=#f8cecc;top=0;left=0;bottom=0;right=0;align=left;spacingLeft=6;overflow=hidden;strokeColor=#b85450;" parent="kuZEhnjZyDIAACLL1wqr-85" vertex="1">
          <mxGeometry x="30" width="150" height="30" as="geometry" />
        </mxCell>
        <mxCell id="kuZEhnjZyDIAACLL1wqr-89" value="" style="shape=partialRectangle;collapsible=0;dropTarget=0;pointerEvents=0;fillColor=none;top=0;left=0;bottom=0;right=0;points=[[0,0.5],[1,0.5]];portConstraint=eastwest;" parent="kuZEhnjZyDIAACLL1wqr-1" vertex="1">
          <mxGeometry y="210" width="180" height="30" as="geometry" />
        </mxCell>
        <mxCell id="kuZEhnjZyDIAACLL1wqr-90" value="FK" style="shape=partialRectangle;connectable=0;fillColor=#f8cecc;top=0;left=0;bottom=0;right=0;fontStyle=0;overflow=hidden;strokeColor=#b85450;" parent="kuZEhnjZyDIAACLL1wqr-89" vertex="1">
          <mxGeometry width="30" height="30" as="geometry" />
        </mxCell>
        <mxCell id="kuZEhnjZyDIAACLL1wqr-91" value="id_denda" style="shape=partialRectangle;connectable=0;fillColor=#f8cecc;top=0;left=0;bottom=0;right=0;align=left;spacingLeft=6;fontStyle=0;overflow=hidden;strokeColor=#b85450;" parent="kuZEhnjZyDIAACLL1wqr-89" vertex="1">
          <mxGeometry x="30" width="150" height="30" as="geometry" />
        </mxCell>
        <mxCell id="kuZEhnjZyDIAACLL1wqr-93" value="" style="shape=partialRectangle;collapsible=0;dropTarget=0;pointerEvents=0;fillColor=none;top=0;left=0;bottom=0;right=0;points=[[0,0.5],[1,0.5]];portConstraint=eastwest;" parent="kuZEhnjZyDIAACLL1wqr-1" vertex="1">
          <mxGeometry y="240" width="180" height="30" as="geometry" />
        </mxCell>
        <mxCell id="kuZEhnjZyDIAACLL1wqr-94" value="" style="shape=partialRectangle;connectable=0;fillColor=#f8cecc;top=0;left=0;bottom=0;right=0;editable=1;overflow=hidden;strokeColor=#b85450;" parent="kuZEhnjZyDIAACLL1wqr-93" vertex="1">
          <mxGeometry width="30" height="30" as="geometry" />
        </mxCell>
        <mxCell id="kuZEhnjZyDIAACLL1wqr-95" value="keterangan" style="shape=partialRectangle;connectable=0;fillColor=#f8cecc;top=0;left=0;bottom=0;right=0;align=left;spacingLeft=6;overflow=hidden;strokeColor=#b85450;" parent="kuZEhnjZyDIAACLL1wqr-93" vertex="1">
          <mxGeometry x="30" width="150" height="30" as="geometry" />
        </mxCell>
        <mxCell id="kuZEhnjZyDIAACLL1wqr-195" value="" style="endArrow=none;html=1;rounded=0;entryX=0;entryY=0.5;entryDx=0;entryDy=0;" parent="1" target="kuZEhnjZyDIAACLL1wqr-152" edge="1">
          <mxGeometry relative="1" as="geometry">
            <mxPoint x="710" y="400" as="sourcePoint" />
            <mxPoint x="895" y="400" as="targetPoint" />
          </mxGeometry>
        </mxCell>
        <mxCell id="kuZEhnjZyDIAACLL1wqr-197" value="" style="endArrow=none;html=1;rounded=0;entryX=0.5;entryY=0;entryDx=0;entryDy=0;exitX=0.5;exitY=1;exitDx=0;exitDy=0;" parent="1" source="kuZEhnjZyDIAACLL1wqr-1" target="kuZEhnjZyDIAACLL1wqr-171" edge="1">
          <mxGeometry relative="1" as="geometry">
            <mxPoint x="619.1700000000001" y="560" as="sourcePoint" />
            <mxPoint x="619" y="610" as="targetPoint" />
          </mxGeometry>
        </mxCell>
        <mxCell id="kuZEhnjZyDIAACLL1wqr-171" value="Buku" style="shape=table;startSize=30;container=1;collapsible=1;childLayout=tableLayout;fixedRows=1;rowLines=0;fontStyle=1;align=center;resizeLast=1;rounded=0;" parent="1" vertex="1">
          <mxGeometry x="530" y="630" width="180" height="220" as="geometry" />
        </mxCell>
        <mxCell id="kuZEhnjZyDIAACLL1wqr-172" value="" style="shape=partialRectangle;collapsible=0;dropTarget=0;pointerEvents=0;fillColor=none;top=0;left=0;bottom=1;right=0;points=[[0,0.5],[1,0.5]];portConstraint=eastwest;" parent="kuZEhnjZyDIAACLL1wqr-171" vertex="1">
          <mxGeometry y="30" width="180" height="30" as="geometry" />
        </mxCell>
        <mxCell id="kuZEhnjZyDIAACLL1wqr-173" value="PK" style="shape=partialRectangle;connectable=0;fillColor=none;top=0;left=0;bottom=0;right=0;fontStyle=1;overflow=hidden;" parent="kuZEhnjZyDIAACLL1wqr-172" vertex="1">
          <mxGeometry width="30" height="30" as="geometry" />
        </mxCell>
        <mxCell id="kuZEhnjZyDIAACLL1wqr-174" value="id_buku" style="shape=partialRectangle;connectable=0;fillColor=none;top=0;left=0;bottom=0;right=0;align=left;spacingLeft=6;fontStyle=5;overflow=hidden;" parent="kuZEhnjZyDIAACLL1wqr-172" vertex="1">
          <mxGeometry x="30" width="150" height="30" as="geometry" />
        </mxCell>
        <mxCell id="kuZEhnjZyDIAACLL1wqr-175" value="" style="shape=partialRectangle;collapsible=0;dropTarget=0;pointerEvents=0;fillColor=none;top=0;left=0;bottom=0;right=0;points=[[0,0.5],[1,0.5]];portConstraint=eastwest;" parent="kuZEhnjZyDIAACLL1wqr-171" vertex="1">
          <mxGeometry y="60" width="180" height="30" as="geometry" />
        </mxCell>
        <mxCell id="kuZEhnjZyDIAACLL1wqr-176" value="" style="shape=partialRectangle;connectable=0;fillColor=none;top=0;left=0;bottom=0;right=0;editable=1;overflow=hidden;" parent="kuZEhnjZyDIAACLL1wqr-175" vertex="1">
          <mxGeometry width="30" height="30" as="geometry" />
        </mxCell>
        <mxCell id="kuZEhnjZyDIAACLL1wqr-177" value="judul_buku" style="shape=partialRectangle;connectable=0;fillColor=none;top=0;left=0;bottom=0;right=0;align=left;spacingLeft=6;overflow=hidden;" parent="kuZEhnjZyDIAACLL1wqr-175" vertex="1">
          <mxGeometry x="30" width="150" height="30" as="geometry" />
        </mxCell>
        <mxCell id="kuZEhnjZyDIAACLL1wqr-189" value="" style="shape=partialRectangle;collapsible=0;dropTarget=0;pointerEvents=0;fillColor=none;top=0;left=0;bottom=0;right=0;points=[[0,0.5],[1,0.5]];portConstraint=eastwest;" parent="kuZEhnjZyDIAACLL1wqr-171" vertex="1">
          <mxGeometry y="90" width="180" height="30" as="geometry" />
        </mxCell>
        <mxCell id="kuZEhnjZyDIAACLL1wqr-190" value="FK" style="shape=partialRectangle;connectable=0;fillColor=none;top=0;left=0;bottom=0;right=0;fontStyle=0;overflow=hidden;" parent="kuZEhnjZyDIAACLL1wqr-189" vertex="1">
          <mxGeometry width="30" height="30" as="geometry" />
        </mxCell>
        <mxCell id="kuZEhnjZyDIAACLL1wqr-191" value="id_jenis_buku" style="shape=partialRectangle;connectable=0;fillColor=none;top=0;left=0;bottom=0;right=0;align=left;spacingLeft=6;fontStyle=0;overflow=hidden;" parent="kuZEhnjZyDIAACLL1wqr-189" vertex="1">
          <mxGeometry x="30" width="150" height="30" as="geometry" />
        </mxCell>
        <mxCell id="kuZEhnjZyDIAACLL1wqr-181" value="" style="shape=partialRectangle;collapsible=0;dropTarget=0;pointerEvents=0;fillColor=none;top=0;left=0;bottom=0;right=0;points=[[0,0.5],[1,0.5]];portConstraint=eastwest;" parent="kuZEhnjZyDIAACLL1wqr-171" vertex="1">
          <mxGeometry y="120" width="180" height="30" as="geometry" />
        </mxCell>
        <mxCell id="kuZEhnjZyDIAACLL1wqr-182" value="" style="shape=partialRectangle;connectable=0;fillColor=none;top=0;left=0;bottom=0;right=0;editable=1;overflow=hidden;" parent="kuZEhnjZyDIAACLL1wqr-181" vertex="1">
          <mxGeometry width="30" height="30" as="geometry" />
        </mxCell>
        <mxCell id="kuZEhnjZyDIAACLL1wqr-183" value="penerbit" style="shape=partialRectangle;connectable=0;fillColor=none;top=0;left=0;bottom=0;right=0;align=left;spacingLeft=6;overflow=hidden;" parent="kuZEhnjZyDIAACLL1wqr-181" vertex="1">
          <mxGeometry x="30" width="150" height="30" as="geometry" />
        </mxCell>
        <mxCell id="kuZEhnjZyDIAACLL1wqr-185" value="" style="shape=partialRectangle;collapsible=0;dropTarget=0;pointerEvents=0;fillColor=none;top=0;left=0;bottom=0;right=0;points=[[0,0.5],[1,0.5]];portConstraint=eastwest;" parent="kuZEhnjZyDIAACLL1wqr-171" vertex="1">
          <mxGeometry y="150" width="180" height="30" as="geometry" />
        </mxCell>
        <mxCell id="kuZEhnjZyDIAACLL1wqr-186" value="" style="shape=partialRectangle;connectable=0;fillColor=none;top=0;left=0;bottom=0;right=0;editable=1;overflow=hidden;" parent="kuZEhnjZyDIAACLL1wqr-185" vertex="1">
          <mxGeometry width="30" height="30" as="geometry" />
        </mxCell>
        <mxCell id="kuZEhnjZyDIAACLL1wqr-187" value="pengarang" style="shape=partialRectangle;connectable=0;fillColor=none;top=0;left=0;bottom=0;right=0;align=left;spacingLeft=6;overflow=hidden;" parent="kuZEhnjZyDIAACLL1wqr-185" vertex="1">
          <mxGeometry x="30" width="150" height="30" as="geometry" />
        </mxCell>
        <mxCell id="kuZEhnjZyDIAACLL1wqr-178" value="" style="shape=partialRectangle;collapsible=0;dropTarget=0;pointerEvents=0;fillColor=none;top=0;left=0;bottom=0;right=0;points=[[0,0.5],[1,0.5]];portConstraint=eastwest;" parent="kuZEhnjZyDIAACLL1wqr-171" vertex="1">
          <mxGeometry y="180" width="180" height="30" as="geometry" />
        </mxCell>
        <mxCell id="kuZEhnjZyDIAACLL1wqr-179" value="" style="shape=partialRectangle;connectable=0;fillColor=none;top=0;left=0;bottom=0;right=0;editable=1;overflow=hidden;" parent="kuZEhnjZyDIAACLL1wqr-178" vertex="1">
          <mxGeometry width="30" height="30" as="geometry" />
        </mxCell>
        <mxCell id="kuZEhnjZyDIAACLL1wqr-180" value="" style="shape=partialRectangle;connectable=0;fillColor=none;top=0;left=0;bottom=0;right=0;align=left;spacingLeft=6;overflow=hidden;" parent="kuZEhnjZyDIAACLL1wqr-178" vertex="1">
          <mxGeometry x="30" width="150" height="30" as="geometry" />
        </mxCell>
        <mxCell id="kuZEhnjZyDIAACLL1wqr-199" value="&lt;font style=&quot;font-size: 18px&quot;&gt;STAR SCHEMA DATA WAREHOUSE PERPUSTAKAAN &lt;br&gt;KELOMPOK 6&lt;/font&gt;" style="text;html=1;resizable=0;autosize=1;align=center;verticalAlign=middle;points=[];fillColor=none;strokeColor=none;rounded=0;startSize=30;strokeWidth=13;" parent="1" vertex="1">
          <mxGeometry x="50" y="110" width="460" height="40" as="geometry" />
        </mxCell>
        <mxCell id="kuZEhnjZyDIAACLL1wqr-132" value="Denda" style="shape=table;startSize=30;container=1;collapsible=1;childLayout=tableLayout;fixedRows=1;rowLines=0;fontStyle=1;align=center;resizeLast=1;rounded=0;" parent="1" vertex="1">
          <mxGeometry x="160" y="295" width="180" height="160" as="geometry" />
        </mxCell>
        <mxCell id="kuZEhnjZyDIAACLL1wqr-133" value="" style="shape=partialRectangle;collapsible=0;dropTarget=0;pointerEvents=0;fillColor=none;top=0;left=0;bottom=1;right=0;points=[[0,0.5],[1,0.5]];portConstraint=eastwest;" parent="kuZEhnjZyDIAACLL1wqr-132" vertex="1">
          <mxGeometry y="30" width="180" height="30" as="geometry" />
        </mxCell>
        <mxCell id="kuZEhnjZyDIAACLL1wqr-134" value="PK" style="shape=partialRectangle;connectable=0;fillColor=none;top=0;left=0;bottom=0;right=0;fontStyle=1;overflow=hidden;" parent="kuZEhnjZyDIAACLL1wqr-133" vertex="1">
          <mxGeometry width="30" height="30" as="geometry" />
        </mxCell>
        <mxCell id="kuZEhnjZyDIAACLL1wqr-135" value="id_denda" style="shape=partialRectangle;connectable=0;fillColor=none;top=0;left=0;bottom=0;right=0;align=left;spacingLeft=6;fontStyle=5;overflow=hidden;" parent="kuZEhnjZyDIAACLL1wqr-133" vertex="1">
          <mxGeometry x="30" width="150" height="30" as="geometry" />
        </mxCell>
        <mxCell id="kuZEhnjZyDIAACLL1wqr-136" value="" style="shape=partialRectangle;collapsible=0;dropTarget=0;pointerEvents=0;fillColor=none;top=0;left=0;bottom=0;right=0;points=[[0,0.5],[1,0.5]];portConstraint=eastwest;" parent="kuZEhnjZyDIAACLL1wqr-132" vertex="1">
          <mxGeometry y="60" width="180" height="30" as="geometry" />
        </mxCell>
        <mxCell id="kuZEhnjZyDIAACLL1wqr-137" value="" style="shape=partialRectangle;connectable=0;fillColor=none;top=0;left=0;bottom=0;right=0;editable=1;overflow=hidden;" parent="kuZEhnjZyDIAACLL1wqr-136" vertex="1">
          <mxGeometry width="30" height="30" as="geometry" />
        </mxCell>
        <mxCell id="kuZEhnjZyDIAACLL1wqr-138" value="jenis_denda" style="shape=partialRectangle;connectable=0;fillColor=none;top=0;left=0;bottom=0;right=0;align=left;spacingLeft=6;overflow=hidden;" parent="kuZEhnjZyDIAACLL1wqr-136" vertex="1">
          <mxGeometry x="30" width="150" height="30" as="geometry" />
        </mxCell>
        <mxCell id="kuZEhnjZyDIAACLL1wqr-139" value="" style="shape=partialRectangle;collapsible=0;dropTarget=0;pointerEvents=0;fillColor=none;top=0;left=0;bottom=0;right=0;points=[[0,0.5],[1,0.5]];portConstraint=eastwest;" parent="kuZEhnjZyDIAACLL1wqr-132" vertex="1">
          <mxGeometry y="90" width="180" height="30" as="geometry" />
        </mxCell>
        <mxCell id="kuZEhnjZyDIAACLL1wqr-140" value="" style="shape=partialRectangle;connectable=0;fillColor=none;top=0;left=0;bottom=0;right=0;editable=1;overflow=hidden;" parent="kuZEhnjZyDIAACLL1wqr-139" vertex="1">
          <mxGeometry width="30" height="30" as="geometry" />
        </mxCell>
        <mxCell id="kuZEhnjZyDIAACLL1wqr-141" value="keterangan_denda" style="shape=partialRectangle;connectable=0;fillColor=none;top=0;left=0;bottom=0;right=0;align=left;spacingLeft=6;overflow=hidden;" parent="kuZEhnjZyDIAACLL1wqr-139" vertex="1">
          <mxGeometry x="30" width="150" height="30" as="geometry" />
        </mxCell>
        <mxCell id="kuZEhnjZyDIAACLL1wqr-142" value="" style="shape=partialRectangle;collapsible=0;dropTarget=0;pointerEvents=0;fillColor=none;top=0;left=0;bottom=0;right=0;points=[[0,0.5],[1,0.5]];portConstraint=eastwest;" parent="kuZEhnjZyDIAACLL1wqr-132" vertex="1">
          <mxGeometry y="120" width="180" height="30" as="geometry" />
        </mxCell>
        <mxCell id="kuZEhnjZyDIAACLL1wqr-143" value="" style="shape=partialRectangle;connectable=0;fillColor=none;top=0;left=0;bottom=0;right=0;editable=1;overflow=hidden;" parent="kuZEhnjZyDIAACLL1wqr-142" vertex="1">
          <mxGeometry width="30" height="30" as="geometry" />
        </mxCell>
        <mxCell id="kuZEhnjZyDIAACLL1wqr-144" value="biaya" style="shape=partialRectangle;connectable=0;fillColor=none;top=0;left=0;bottom=0;right=0;align=left;spacingLeft=6;overflow=hidden;" parent="kuZEhnjZyDIAACLL1wqr-142" vertex="1">
          <mxGeometry x="30" width="150" height="30" as="geometry" />
        </mxCell>
        <mxCell id="kuZEhnjZyDIAACLL1wqr-145" value="Petugas" style="shape=table;startSize=30;container=1;collapsible=1;childLayout=tableLayout;fixedRows=1;rowLines=0;fontStyle=1;align=center;resizeLast=1;rounded=0;" parent="1" vertex="1">
          <mxGeometry x="900" y="295" width="180" height="240" as="geometry" />
        </mxCell>
        <mxCell id="kuZEhnjZyDIAACLL1wqr-146" value="" style="shape=partialRectangle;collapsible=0;dropTarget=0;pointerEvents=0;fillColor=none;top=0;left=0;bottom=1;right=0;points=[[0,0.5],[1,0.5]];portConstraint=eastwest;" parent="kuZEhnjZyDIAACLL1wqr-145" vertex="1">
          <mxGeometry y="30" width="180" height="30" as="geometry" />
        </mxCell>
        <mxCell id="kuZEhnjZyDIAACLL1wqr-147" value="PK" style="shape=partialRectangle;connectable=0;fillColor=none;top=0;left=0;bottom=0;right=0;fontStyle=1;overflow=hidden;" parent="kuZEhnjZyDIAACLL1wqr-146" vertex="1">
          <mxGeometry width="30" height="30" as="geometry" />
        </mxCell>
        <mxCell id="kuZEhnjZyDIAACLL1wqr-148" value="id_petugas" style="shape=partialRectangle;connectable=0;fillColor=none;top=0;left=0;bottom=0;right=0;align=left;spacingLeft=6;fontStyle=5;overflow=hidden;" parent="kuZEhnjZyDIAACLL1wqr-146" vertex="1">
          <mxGeometry x="30" width="150" height="30" as="geometry" />
        </mxCell>
        <mxCell id="kuZEhnjZyDIAACLL1wqr-149" value="" style="shape=partialRectangle;collapsible=0;dropTarget=0;pointerEvents=0;fillColor=none;top=0;left=0;bottom=0;right=0;points=[[0,0.5],[1,0.5]];portConstraint=eastwest;" parent="kuZEhnjZyDIAACLL1wqr-145" vertex="1">
          <mxGeometry y="60" width="180" height="30" as="geometry" />
        </mxCell>
        <mxCell id="kuZEhnjZyDIAACLL1wqr-150" value="" style="shape=partialRectangle;connectable=0;fillColor=none;top=0;left=0;bottom=0;right=0;editable=1;overflow=hidden;" parent="kuZEhnjZyDIAACLL1wqr-149" vertex="1">
          <mxGeometry width="30" height="30" as="geometry" />
        </mxCell>
        <mxCell id="kuZEhnjZyDIAACLL1wqr-151" value="nama_petugas" style="shape=partialRectangle;connectable=0;fillColor=none;top=0;left=0;bottom=0;right=0;align=left;spacingLeft=6;overflow=hidden;" parent="kuZEhnjZyDIAACLL1wqr-149" vertex="1">
          <mxGeometry x="30" width="150" height="30" as="geometry" />
        </mxCell>
        <mxCell id="kuZEhnjZyDIAACLL1wqr-152" value="" style="shape=partialRectangle;collapsible=0;dropTarget=0;pointerEvents=0;fillColor=none;top=0;left=0;bottom=0;right=0;points=[[0,0.5],[1,0.5]];portConstraint=eastwest;" parent="kuZEhnjZyDIAACLL1wqr-145" vertex="1">
          <mxGeometry y="90" width="180" height="30" as="geometry" />
        </mxCell>
        <mxCell id="kuZEhnjZyDIAACLL1wqr-153" value="" style="shape=partialRectangle;connectable=0;fillColor=none;top=0;left=0;bottom=0;right=0;editable=1;overflow=hidden;" parent="kuZEhnjZyDIAACLL1wqr-152" vertex="1">
          <mxGeometry width="30" height="30" as="geometry" />
        </mxCell>
        <mxCell id="kuZEhnjZyDIAACLL1wqr-154" value="no_identitas_petugas" style="shape=partialRectangle;connectable=0;fillColor=none;top=0;left=0;bottom=0;right=0;align=left;spacingLeft=6;overflow=hidden;" parent="kuZEhnjZyDIAACLL1wqr-152" vertex="1">
          <mxGeometry x="30" width="150" height="30" as="geometry" />
        </mxCell>
        <mxCell id="kuZEhnjZyDIAACLL1wqr-155" value="" style="shape=partialRectangle;collapsible=0;dropTarget=0;pointerEvents=0;fillColor=none;top=0;left=0;bottom=0;right=0;points=[[0,0.5],[1,0.5]];portConstraint=eastwest;" parent="kuZEhnjZyDIAACLL1wqr-145" vertex="1">
          <mxGeometry y="120" width="180" height="30" as="geometry" />
        </mxCell>
        <mxCell id="kuZEhnjZyDIAACLL1wqr-156" value="" style="shape=partialRectangle;connectable=0;fillColor=none;top=0;left=0;bottom=0;right=0;editable=1;overflow=hidden;" parent="kuZEhnjZyDIAACLL1wqr-155" vertex="1">
          <mxGeometry width="30" height="30" as="geometry" />
        </mxCell>
        <mxCell id="kuZEhnjZyDIAACLL1wqr-157" value="alamat_petugas" style="shape=partialRectangle;connectable=0;fillColor=none;top=0;left=0;bottom=0;right=0;align=left;spacingLeft=6;overflow=hidden;" parent="kuZEhnjZyDIAACLL1wqr-155" vertex="1">
          <mxGeometry x="30" width="150" height="30" as="geometry" />
        </mxCell>
        <mxCell id="kuZEhnjZyDIAACLL1wqr-160" value="" style="shape=partialRectangle;collapsible=0;dropTarget=0;pointerEvents=0;fillColor=none;top=0;left=0;bottom=0;right=0;points=[[0,0.5],[1,0.5]];portConstraint=eastwest;" parent="kuZEhnjZyDIAACLL1wqr-145" vertex="1">
          <mxGeometry y="150" width="180" height="30" as="geometry" />
        </mxCell>
        <mxCell id="kuZEhnjZyDIAACLL1wqr-161" value="" style="shape=partialRectangle;connectable=0;fillColor=none;top=0;left=0;bottom=0;right=0;editable=1;overflow=hidden;" parent="kuZEhnjZyDIAACLL1wqr-160" vertex="1">
          <mxGeometry width="30" height="30" as="geometry" />
        </mxCell>
        <mxCell id="kuZEhnjZyDIAACLL1wqr-162" value="no_hp_petugas" style="shape=partialRectangle;connectable=0;fillColor=none;top=0;left=0;bottom=0;right=0;align=left;spacingLeft=6;overflow=hidden;" parent="kuZEhnjZyDIAACLL1wqr-160" vertex="1">
          <mxGeometry x="30" width="150" height="30" as="geometry" />
        </mxCell>
        <mxCell id="kuZEhnjZyDIAACLL1wqr-164" value="" style="shape=partialRectangle;collapsible=0;dropTarget=0;pointerEvents=0;fillColor=none;top=0;left=0;bottom=0;right=0;points=[[0,0.5],[1,0.5]];portConstraint=eastwest;" parent="kuZEhnjZyDIAACLL1wqr-145" vertex="1">
          <mxGeometry y="180" width="180" height="30" as="geometry" />
        </mxCell>
        <mxCell id="kuZEhnjZyDIAACLL1wqr-165" value="" style="shape=partialRectangle;connectable=0;fillColor=none;top=0;left=0;bottom=0;right=0;editable=1;overflow=hidden;" parent="kuZEhnjZyDIAACLL1wqr-164" vertex="1">
          <mxGeometry width="30" height="30" as="geometry" />
        </mxCell>
        <mxCell id="kuZEhnjZyDIAACLL1wqr-166" value="email_petugas" style="shape=partialRectangle;connectable=0;fillColor=none;top=0;left=0;bottom=0;right=0;align=left;spacingLeft=6;overflow=hidden;" parent="kuZEhnjZyDIAACLL1wqr-164" vertex="1">
          <mxGeometry x="30" width="150" height="30" as="geometry" />
        </mxCell>
        <mxCell id="kuZEhnjZyDIAACLL1wqr-168" value="" style="shape=partialRectangle;collapsible=0;dropTarget=0;pointerEvents=0;fillColor=none;top=0;left=0;bottom=0;right=0;points=[[0,0.5],[1,0.5]];portConstraint=eastwest;" parent="kuZEhnjZyDIAACLL1wqr-145" vertex="1">
          <mxGeometry y="210" width="180" height="30" as="geometry" />
        </mxCell>
        <mxCell id="kuZEhnjZyDIAACLL1wqr-169" value="" style="shape=partialRectangle;connectable=0;fillColor=none;top=0;left=0;bottom=0;right=0;editable=1;overflow=hidden;" parent="kuZEhnjZyDIAACLL1wqr-168" vertex="1">
          <mxGeometry width="30" height="30" as="geometry" />
        </mxCell>
        <mxCell id="kuZEhnjZyDIAACLL1wqr-170" value="" style="shape=partialRectangle;connectable=0;fillColor=none;top=0;left=0;bottom=0;right=0;align=left;spacingLeft=6;overflow=hidden;" parent="kuZEhnjZyDIAACLL1wqr-168" vertex="1">
          <mxGeometry x="30" width="150" height="30" as="geometry" />
        </mxCell>
      </root>
    </mxGraphModel>
  </diagram>
  <diagram name="Snowflake schema" id="dGH6W_qkgBO4hufgxS9y">
    <mxGraphModel dx="2518" dy="619" grid="1" gridSize="10" guides="1" tooltips="1" connect="1" arrows="1" fold="1" page="1" pageScale="1" pageWidth="1169" pageHeight="827" math="0" shadow="0">
      <root>
        <mxCell id="X3aqsmZk4e3b6nWdcb5C-0" />
        <mxCell id="X3aqsmZk4e3b6nWdcb5C-1" parent="X3aqsmZk4e3b6nWdcb5C-0" />
        <mxCell id="X3aqsmZk4e3b6nWdcb5C-2" value="" style="endArrow=none;html=1;rounded=0;entryX=0;entryY=0.5;entryDx=0;entryDy=0;exitX=1;exitY=0.5;exitDx=0;exitDy=0;" edge="1" parent="X3aqsmZk4e3b6nWdcb5C-1" source="X3aqsmZk4e3b6nWdcb5C-77" target="X3aqsmZk4e3b6nWdcb5C-30">
          <mxGeometry relative="1" as="geometry">
            <mxPoint x="370" y="389.17" as="sourcePoint" />
            <mxPoint x="530" y="389.17" as="targetPoint" />
          </mxGeometry>
        </mxCell>
        <mxCell id="X3aqsmZk4e3b6nWdcb5C-3" value="" style="endArrow=none;html=1;rounded=0;exitX=0.5;exitY=1;exitDx=0;exitDy=0;entryX=0.5;entryY=0;entryDx=0;entryDy=0;" edge="1" parent="X3aqsmZk4e3b6nWdcb5C-1" source="X3aqsmZk4e3b6nWdcb5C-4" target="X3aqsmZk4e3b6nWdcb5C-23">
          <mxGeometry relative="1" as="geometry">
            <mxPoint x="619.17" y="220" as="sourcePoint" />
            <mxPoint x="619" y="280" as="targetPoint" />
          </mxGeometry>
        </mxCell>
        <mxCell id="X3aqsmZk4e3b6nWdcb5C-4" value="Anggota" style="shape=table;startSize=30;container=1;collapsible=1;childLayout=tableLayout;fixedRows=1;rowLines=0;fontStyle=1;align=center;resizeLast=1;rounded=0;" vertex="1" parent="X3aqsmZk4e3b6nWdcb5C-1">
          <mxGeometry x="530" y="30" width="180" height="220" as="geometry">
            <mxRectangle x="590" y="30" width="80" height="30" as="alternateBounds" />
          </mxGeometry>
        </mxCell>
        <mxCell id="X3aqsmZk4e3b6nWdcb5C-5" value="" style="shape=partialRectangle;collapsible=0;dropTarget=0;pointerEvents=0;fillColor=none;top=0;left=0;bottom=1;right=0;points=[[0,0.5],[1,0.5]];portConstraint=eastwest;" vertex="1" parent="X3aqsmZk4e3b6nWdcb5C-4">
          <mxGeometry y="30" width="180" height="30" as="geometry" />
        </mxCell>
        <mxCell id="X3aqsmZk4e3b6nWdcb5C-6" value="PK" style="shape=partialRectangle;connectable=0;fillColor=none;top=0;left=0;bottom=0;right=0;fontStyle=1;overflow=hidden;" vertex="1" parent="X3aqsmZk4e3b6nWdcb5C-5">
          <mxGeometry width="30" height="30" as="geometry" />
        </mxCell>
        <mxCell id="X3aqsmZk4e3b6nWdcb5C-7" value="id_anggota" style="shape=partialRectangle;connectable=0;fillColor=none;top=0;left=0;bottom=0;right=0;align=left;spacingLeft=6;fontStyle=5;overflow=hidden;" vertex="1" parent="X3aqsmZk4e3b6nWdcb5C-5">
          <mxGeometry x="30" width="150" height="30" as="geometry" />
        </mxCell>
        <mxCell id="X3aqsmZk4e3b6nWdcb5C-8" value="" style="shape=partialRectangle;collapsible=0;dropTarget=0;pointerEvents=0;fillColor=none;top=0;left=0;bottom=0;right=0;points=[[0,0.5],[1,0.5]];portConstraint=eastwest;" vertex="1" parent="X3aqsmZk4e3b6nWdcb5C-4">
          <mxGeometry y="60" width="180" height="30" as="geometry" />
        </mxCell>
        <mxCell id="X3aqsmZk4e3b6nWdcb5C-9" value="" style="shape=partialRectangle;connectable=0;fillColor=none;top=0;left=0;bottom=0;right=0;editable=1;overflow=hidden;" vertex="1" parent="X3aqsmZk4e3b6nWdcb5C-8">
          <mxGeometry width="30" height="30" as="geometry" />
        </mxCell>
        <mxCell id="X3aqsmZk4e3b6nWdcb5C-10" value="nama_anggota" style="shape=partialRectangle;connectable=0;fillColor=none;top=0;left=0;bottom=0;right=0;align=left;spacingLeft=6;overflow=hidden;" vertex="1" parent="X3aqsmZk4e3b6nWdcb5C-8">
          <mxGeometry x="30" width="150" height="30" as="geometry" />
        </mxCell>
        <mxCell id="X3aqsmZk4e3b6nWdcb5C-11" value="" style="shape=partialRectangle;collapsible=0;dropTarget=0;pointerEvents=0;fillColor=none;top=0;left=0;bottom=0;right=0;points=[[0,0.5],[1,0.5]];portConstraint=eastwest;" vertex="1" parent="X3aqsmZk4e3b6nWdcb5C-4">
          <mxGeometry y="90" width="180" height="30" as="geometry" />
        </mxCell>
        <mxCell id="X3aqsmZk4e3b6nWdcb5C-12" value="" style="shape=partialRectangle;connectable=0;fillColor=none;top=0;left=0;bottom=0;right=0;editable=1;overflow=hidden;" vertex="1" parent="X3aqsmZk4e3b6nWdcb5C-11">
          <mxGeometry width="30" height="30" as="geometry" />
        </mxCell>
        <mxCell id="X3aqsmZk4e3b6nWdcb5C-13" value="no_identitas_anggota" style="shape=partialRectangle;connectable=0;fillColor=none;top=0;left=0;bottom=0;right=0;align=left;spacingLeft=6;overflow=hidden;" vertex="1" parent="X3aqsmZk4e3b6nWdcb5C-11">
          <mxGeometry x="30" width="150" height="30" as="geometry" />
        </mxCell>
        <mxCell id="X3aqsmZk4e3b6nWdcb5C-14" value="" style="shape=partialRectangle;collapsible=0;dropTarget=0;pointerEvents=0;fillColor=none;top=0;left=0;bottom=0;right=0;points=[[0,0.5],[1,0.5]];portConstraint=eastwest;" vertex="1" parent="X3aqsmZk4e3b6nWdcb5C-4">
          <mxGeometry y="120" width="180" height="30" as="geometry" />
        </mxCell>
        <mxCell id="X3aqsmZk4e3b6nWdcb5C-15" value="" style="shape=partialRectangle;connectable=0;fillColor=none;top=0;left=0;bottom=0;right=0;editable=1;overflow=hidden;" vertex="1" parent="X3aqsmZk4e3b6nWdcb5C-14">
          <mxGeometry width="30" height="30" as="geometry" />
        </mxCell>
        <mxCell id="X3aqsmZk4e3b6nWdcb5C-16" value="alamat_anggota" style="shape=partialRectangle;connectable=0;fillColor=none;top=0;left=0;bottom=0;right=0;align=left;spacingLeft=6;overflow=hidden;" vertex="1" parent="X3aqsmZk4e3b6nWdcb5C-14">
          <mxGeometry x="30" width="150" height="30" as="geometry" />
        </mxCell>
        <mxCell id="X3aqsmZk4e3b6nWdcb5C-17" value="" style="shape=partialRectangle;collapsible=0;dropTarget=0;pointerEvents=0;fillColor=none;top=0;left=0;bottom=0;right=0;points=[[0,0.5],[1,0.5]];portConstraint=eastwest;" vertex="1" parent="X3aqsmZk4e3b6nWdcb5C-4">
          <mxGeometry y="150" width="180" height="30" as="geometry" />
        </mxCell>
        <mxCell id="X3aqsmZk4e3b6nWdcb5C-18" value="" style="shape=partialRectangle;connectable=0;fillColor=none;top=0;left=0;bottom=0;right=0;editable=1;overflow=hidden;" vertex="1" parent="X3aqsmZk4e3b6nWdcb5C-17">
          <mxGeometry width="30" height="30" as="geometry" />
        </mxCell>
        <mxCell id="X3aqsmZk4e3b6nWdcb5C-19" value="no_hp_anggota" style="shape=partialRectangle;connectable=0;fillColor=none;top=0;left=0;bottom=0;right=0;align=left;spacingLeft=6;overflow=hidden;" vertex="1" parent="X3aqsmZk4e3b6nWdcb5C-17">
          <mxGeometry x="30" width="150" height="30" as="geometry" />
        </mxCell>
        <mxCell id="X3aqsmZk4e3b6nWdcb5C-20" value="" style="shape=partialRectangle;collapsible=0;dropTarget=0;pointerEvents=0;fillColor=none;top=0;left=0;bottom=0;right=0;points=[[0,0.5],[1,0.5]];portConstraint=eastwest;" vertex="1" parent="X3aqsmZk4e3b6nWdcb5C-4">
          <mxGeometry y="180" width="180" height="30" as="geometry" />
        </mxCell>
        <mxCell id="X3aqsmZk4e3b6nWdcb5C-21" value="" style="shape=partialRectangle;connectable=0;fillColor=none;top=0;left=0;bottom=0;right=0;editable=1;overflow=hidden;" vertex="1" parent="X3aqsmZk4e3b6nWdcb5C-20">
          <mxGeometry width="30" height="30" as="geometry" />
        </mxCell>
        <mxCell id="X3aqsmZk4e3b6nWdcb5C-22" value="email_anggota" style="shape=partialRectangle;connectable=0;fillColor=none;top=0;left=0;bottom=0;right=0;align=left;spacingLeft=6;overflow=hidden;" vertex="1" parent="X3aqsmZk4e3b6nWdcb5C-20">
          <mxGeometry x="30" width="150" height="30" as="geometry" />
        </mxCell>
        <mxCell id="X3aqsmZk4e3b6nWdcb5C-23" value="Peminjaman" style="shape=table;startSize=30;container=1;collapsible=1;childLayout=tableLayout;fixedRows=1;rowLines=0;fontStyle=1;align=center;resizeLast=1;fillColor=#f8cecc;strokeColor=#b85450;" vertex="1" parent="X3aqsmZk4e3b6nWdcb5C-1">
          <mxGeometry x="530" y="295" width="180" height="275" as="geometry">
            <mxRectangle x="540" y="282.5" width="100" height="30" as="alternateBounds" />
          </mxGeometry>
        </mxCell>
        <mxCell id="X3aqsmZk4e3b6nWdcb5C-24" value="" style="shape=partialRectangle;collapsible=0;dropTarget=0;pointerEvents=0;fillColor=none;top=0;left=0;bottom=1;right=0;points=[[0,0.5],[1,0.5]];portConstraint=eastwest;" vertex="1" parent="X3aqsmZk4e3b6nWdcb5C-23">
          <mxGeometry y="30" width="180" height="30" as="geometry" />
        </mxCell>
        <mxCell id="X3aqsmZk4e3b6nWdcb5C-25" value="PK" style="shape=partialRectangle;connectable=0;fillColor=#f8cecc;top=0;left=0;bottom=0;right=0;fontStyle=1;overflow=hidden;strokeColor=#b85450;" vertex="1" parent="X3aqsmZk4e3b6nWdcb5C-24">
          <mxGeometry width="30" height="30" as="geometry" />
        </mxCell>
        <mxCell id="X3aqsmZk4e3b6nWdcb5C-26" value="id_peminjaman" style="shape=partialRectangle;connectable=0;fillColor=#f8cecc;top=0;left=0;bottom=0;right=0;align=left;spacingLeft=6;fontStyle=5;overflow=hidden;strokeColor=#b85450;" vertex="1" parent="X3aqsmZk4e3b6nWdcb5C-24">
          <mxGeometry x="30" width="150" height="30" as="geometry" />
        </mxCell>
        <mxCell id="X3aqsmZk4e3b6nWdcb5C-27" value="" style="shape=partialRectangle;collapsible=0;dropTarget=0;pointerEvents=0;fillColor=none;top=0;left=0;bottom=0;right=0;points=[[0,0.5],[1,0.5]];portConstraint=eastwest;" vertex="1" parent="X3aqsmZk4e3b6nWdcb5C-23">
          <mxGeometry y="60" width="180" height="30" as="geometry" />
        </mxCell>
        <mxCell id="X3aqsmZk4e3b6nWdcb5C-28" value="FK" style="shape=partialRectangle;connectable=0;fillColor=#f8cecc;top=0;left=0;bottom=0;right=0;editable=1;overflow=hidden;strokeColor=#b85450;" vertex="1" parent="X3aqsmZk4e3b6nWdcb5C-27">
          <mxGeometry width="30" height="30" as="geometry" />
        </mxCell>
        <mxCell id="X3aqsmZk4e3b6nWdcb5C-29" value="id_anggota" style="shape=partialRectangle;connectable=0;fillColor=#f8cecc;top=0;left=0;bottom=0;right=0;align=left;spacingLeft=6;overflow=hidden;strokeColor=#b85450;" vertex="1" parent="X3aqsmZk4e3b6nWdcb5C-27">
          <mxGeometry x="30" width="150" height="30" as="geometry" />
        </mxCell>
        <mxCell id="X3aqsmZk4e3b6nWdcb5C-30" value="" style="shape=partialRectangle;collapsible=0;dropTarget=0;pointerEvents=0;fillColor=none;top=0;left=0;bottom=0;right=0;points=[[0,0.5],[1,0.5]];portConstraint=eastwest;" vertex="1" parent="X3aqsmZk4e3b6nWdcb5C-23">
          <mxGeometry y="90" width="180" height="30" as="geometry" />
        </mxCell>
        <mxCell id="X3aqsmZk4e3b6nWdcb5C-31" value="FK" style="shape=partialRectangle;connectable=0;fillColor=#f8cecc;top=0;left=0;bottom=0;right=0;editable=1;overflow=hidden;strokeColor=#b85450;" vertex="1" parent="X3aqsmZk4e3b6nWdcb5C-30">
          <mxGeometry width="30" height="30" as="geometry" />
        </mxCell>
        <mxCell id="X3aqsmZk4e3b6nWdcb5C-32" value="id_buku" style="shape=partialRectangle;connectable=0;fillColor=#f8cecc;top=0;left=0;bottom=0;right=0;align=left;spacingLeft=6;overflow=hidden;strokeColor=#b85450;" vertex="1" parent="X3aqsmZk4e3b6nWdcb5C-30">
          <mxGeometry x="30" width="150" height="30" as="geometry" />
        </mxCell>
        <mxCell id="X3aqsmZk4e3b6nWdcb5C-33" value="" style="shape=partialRectangle;collapsible=0;dropTarget=0;pointerEvents=0;fillColor=none;top=0;left=0;bottom=0;right=0;points=[[0,0.5],[1,0.5]];portConstraint=eastwest;" vertex="1" parent="X3aqsmZk4e3b6nWdcb5C-23">
          <mxGeometry y="120" width="180" height="30" as="geometry" />
        </mxCell>
        <mxCell id="X3aqsmZk4e3b6nWdcb5C-34" value="FK" style="shape=partialRectangle;connectable=0;fillColor=#f8cecc;top=0;left=0;bottom=0;right=0;editable=1;overflow=hidden;strokeColor=#b85450;" vertex="1" parent="X3aqsmZk4e3b6nWdcb5C-33">
          <mxGeometry width="30" height="30" as="geometry" />
        </mxCell>
        <mxCell id="X3aqsmZk4e3b6nWdcb5C-35" value="id_petugas" style="shape=partialRectangle;connectable=0;fillColor=#f8cecc;top=0;left=0;bottom=0;right=0;align=left;spacingLeft=6;overflow=hidden;strokeColor=#b85450;" vertex="1" parent="X3aqsmZk4e3b6nWdcb5C-33">
          <mxGeometry x="30" width="150" height="30" as="geometry" />
        </mxCell>
        <mxCell id="X3aqsmZk4e3b6nWdcb5C-36" value="" style="shape=partialRectangle;collapsible=0;dropTarget=0;pointerEvents=0;fillColor=none;top=0;left=0;bottom=0;right=0;points=[[0,0.5],[1,0.5]];portConstraint=eastwest;" vertex="1" parent="X3aqsmZk4e3b6nWdcb5C-23">
          <mxGeometry y="150" width="180" height="30" as="geometry" />
        </mxCell>
        <mxCell id="X3aqsmZk4e3b6nWdcb5C-37" value="" style="shape=partialRectangle;connectable=0;fillColor=#f8cecc;top=0;left=0;bottom=0;right=0;editable=1;overflow=hidden;strokeColor=#b85450;" vertex="1" parent="X3aqsmZk4e3b6nWdcb5C-36">
          <mxGeometry width="30" height="30" as="geometry" />
        </mxCell>
        <mxCell id="X3aqsmZk4e3b6nWdcb5C-38" value="tgl_pinjam" style="shape=partialRectangle;connectable=0;fillColor=#f8cecc;top=0;left=0;bottom=0;right=0;align=left;spacingLeft=6;overflow=hidden;strokeColor=#b85450;" vertex="1" parent="X3aqsmZk4e3b6nWdcb5C-36">
          <mxGeometry x="30" width="150" height="30" as="geometry" />
        </mxCell>
        <mxCell id="X3aqsmZk4e3b6nWdcb5C-39" value="" style="shape=partialRectangle;collapsible=0;dropTarget=0;pointerEvents=0;fillColor=none;top=0;left=0;bottom=0;right=0;points=[[0,0.5],[1,0.5]];portConstraint=eastwest;" vertex="1" parent="X3aqsmZk4e3b6nWdcb5C-23">
          <mxGeometry y="180" width="180" height="30" as="geometry" />
        </mxCell>
        <mxCell id="X3aqsmZk4e3b6nWdcb5C-40" value="" style="shape=partialRectangle;connectable=0;fillColor=#f8cecc;top=0;left=0;bottom=0;right=0;editable=1;overflow=hidden;strokeColor=#b85450;" vertex="1" parent="X3aqsmZk4e3b6nWdcb5C-39">
          <mxGeometry width="30" height="30" as="geometry" />
        </mxCell>
        <mxCell id="X3aqsmZk4e3b6nWdcb5C-41" value="tgl_kembali" style="shape=partialRectangle;connectable=0;fillColor=#f8cecc;top=0;left=0;bottom=0;right=0;align=left;spacingLeft=6;overflow=hidden;strokeColor=#b85450;" vertex="1" parent="X3aqsmZk4e3b6nWdcb5C-39">
          <mxGeometry x="30" width="150" height="30" as="geometry" />
        </mxCell>
        <mxCell id="X3aqsmZk4e3b6nWdcb5C-42" value="" style="shape=partialRectangle;collapsible=0;dropTarget=0;pointerEvents=0;fillColor=none;top=0;left=0;bottom=0;right=0;points=[[0,0.5],[1,0.5]];portConstraint=eastwest;" vertex="1" parent="X3aqsmZk4e3b6nWdcb5C-23">
          <mxGeometry y="210" width="180" height="30" as="geometry" />
        </mxCell>
        <mxCell id="X3aqsmZk4e3b6nWdcb5C-43" value="FK" style="shape=partialRectangle;connectable=0;fillColor=#f8cecc;top=0;left=0;bottom=0;right=0;fontStyle=0;overflow=hidden;strokeColor=#b85450;" vertex="1" parent="X3aqsmZk4e3b6nWdcb5C-42">
          <mxGeometry width="30" height="30" as="geometry" />
        </mxCell>
        <mxCell id="X3aqsmZk4e3b6nWdcb5C-44" value="id_denda" style="shape=partialRectangle;connectable=0;fillColor=#f8cecc;top=0;left=0;bottom=0;right=0;align=left;spacingLeft=6;fontStyle=0;overflow=hidden;strokeColor=#b85450;" vertex="1" parent="X3aqsmZk4e3b6nWdcb5C-42">
          <mxGeometry x="30" width="150" height="30" as="geometry" />
        </mxCell>
        <mxCell id="X3aqsmZk4e3b6nWdcb5C-45" value="" style="shape=partialRectangle;collapsible=0;dropTarget=0;pointerEvents=0;fillColor=none;top=0;left=0;bottom=0;right=0;points=[[0,0.5],[1,0.5]];portConstraint=eastwest;" vertex="1" parent="X3aqsmZk4e3b6nWdcb5C-23">
          <mxGeometry y="240" width="180" height="30" as="geometry" />
        </mxCell>
        <mxCell id="X3aqsmZk4e3b6nWdcb5C-46" value="" style="shape=partialRectangle;connectable=0;fillColor=#f8cecc;top=0;left=0;bottom=0;right=0;editable=1;overflow=hidden;strokeColor=#b85450;" vertex="1" parent="X3aqsmZk4e3b6nWdcb5C-45">
          <mxGeometry width="30" height="30" as="geometry" />
        </mxCell>
        <mxCell id="X3aqsmZk4e3b6nWdcb5C-47" value="keterangan" style="shape=partialRectangle;connectable=0;fillColor=#f8cecc;top=0;left=0;bottom=0;right=0;align=left;spacingLeft=6;overflow=hidden;strokeColor=#b85450;" vertex="1" parent="X3aqsmZk4e3b6nWdcb5C-45">
          <mxGeometry x="30" width="150" height="30" as="geometry" />
        </mxCell>
        <mxCell id="X3aqsmZk4e3b6nWdcb5C-48" value="" style="endArrow=none;html=1;rounded=0;entryX=0;entryY=0.5;entryDx=0;entryDy=0;" edge="1" parent="X3aqsmZk4e3b6nWdcb5C-1" target="X3aqsmZk4e3b6nWdcb5C-90">
          <mxGeometry relative="1" as="geometry">
            <mxPoint x="710" y="400" as="sourcePoint" />
            <mxPoint x="895" y="400" as="targetPoint" />
          </mxGeometry>
        </mxCell>
        <mxCell id="X3aqsmZk4e3b6nWdcb5C-49" value="" style="endArrow=none;html=1;rounded=0;entryX=0.5;entryY=0;entryDx=0;entryDy=0;exitX=0.5;exitY=1;exitDx=0;exitDy=0;" edge="1" parent="X3aqsmZk4e3b6nWdcb5C-1" source="X3aqsmZk4e3b6nWdcb5C-23" target="X3aqsmZk4e3b6nWdcb5C-50">
          <mxGeometry relative="1" as="geometry">
            <mxPoint x="619.1700000000001" y="560" as="sourcePoint" />
            <mxPoint x="619" y="610" as="targetPoint" />
          </mxGeometry>
        </mxCell>
        <mxCell id="X3aqsmZk4e3b6nWdcb5C-50" value="Buku" style="shape=table;startSize=30;container=1;collapsible=1;childLayout=tableLayout;fixedRows=1;rowLines=0;fontStyle=1;align=center;resizeLast=1;rounded=0;" vertex="1" parent="X3aqsmZk4e3b6nWdcb5C-1">
          <mxGeometry x="530" y="630" width="180" height="220" as="geometry" />
        </mxCell>
        <mxCell id="X3aqsmZk4e3b6nWdcb5C-51" value="" style="shape=partialRectangle;collapsible=0;dropTarget=0;pointerEvents=0;fillColor=none;top=0;left=0;bottom=1;right=0;points=[[0,0.5],[1,0.5]];portConstraint=eastwest;" vertex="1" parent="X3aqsmZk4e3b6nWdcb5C-50">
          <mxGeometry y="30" width="180" height="30" as="geometry" />
        </mxCell>
        <mxCell id="X3aqsmZk4e3b6nWdcb5C-52" value="PK" style="shape=partialRectangle;connectable=0;fillColor=none;top=0;left=0;bottom=0;right=0;fontStyle=1;overflow=hidden;" vertex="1" parent="X3aqsmZk4e3b6nWdcb5C-51">
          <mxGeometry width="30" height="30" as="geometry" />
        </mxCell>
        <mxCell id="X3aqsmZk4e3b6nWdcb5C-53" value="id_buku" style="shape=partialRectangle;connectable=0;fillColor=none;top=0;left=0;bottom=0;right=0;align=left;spacingLeft=6;fontStyle=5;overflow=hidden;" vertex="1" parent="X3aqsmZk4e3b6nWdcb5C-51">
          <mxGeometry x="30" width="150" height="30" as="geometry" />
        </mxCell>
        <mxCell id="X3aqsmZk4e3b6nWdcb5C-54" value="" style="shape=partialRectangle;collapsible=0;dropTarget=0;pointerEvents=0;fillColor=none;top=0;left=0;bottom=0;right=0;points=[[0,0.5],[1,0.5]];portConstraint=eastwest;" vertex="1" parent="X3aqsmZk4e3b6nWdcb5C-50">
          <mxGeometry y="60" width="180" height="30" as="geometry" />
        </mxCell>
        <mxCell id="X3aqsmZk4e3b6nWdcb5C-55" value="" style="shape=partialRectangle;connectable=0;fillColor=none;top=0;left=0;bottom=0;right=0;editable=1;overflow=hidden;" vertex="1" parent="X3aqsmZk4e3b6nWdcb5C-54">
          <mxGeometry width="30" height="30" as="geometry" />
        </mxCell>
        <mxCell id="X3aqsmZk4e3b6nWdcb5C-56" value="judul_buku" style="shape=partialRectangle;connectable=0;fillColor=none;top=0;left=0;bottom=0;right=0;align=left;spacingLeft=6;overflow=hidden;" vertex="1" parent="X3aqsmZk4e3b6nWdcb5C-54">
          <mxGeometry x="30" width="150" height="30" as="geometry" />
        </mxCell>
        <mxCell id="X3aqsmZk4e3b6nWdcb5C-57" value="" style="shape=partialRectangle;collapsible=0;dropTarget=0;pointerEvents=0;fillColor=none;top=0;left=0;bottom=0;right=0;points=[[0,0.5],[1,0.5]];portConstraint=eastwest;" vertex="1" parent="X3aqsmZk4e3b6nWdcb5C-50">
          <mxGeometry y="90" width="180" height="30" as="geometry" />
        </mxCell>
        <mxCell id="X3aqsmZk4e3b6nWdcb5C-58" value="FK" style="shape=partialRectangle;connectable=0;fillColor=none;top=0;left=0;bottom=0;right=0;fontStyle=0;overflow=hidden;" vertex="1" parent="X3aqsmZk4e3b6nWdcb5C-57">
          <mxGeometry width="30" height="30" as="geometry" />
        </mxCell>
        <mxCell id="X3aqsmZk4e3b6nWdcb5C-59" value="id_jenis_buku" style="shape=partialRectangle;connectable=0;fillColor=none;top=0;left=0;bottom=0;right=0;align=left;spacingLeft=6;fontStyle=0;overflow=hidden;" vertex="1" parent="X3aqsmZk4e3b6nWdcb5C-57">
          <mxGeometry x="30" width="150" height="30" as="geometry" />
        </mxCell>
        <mxCell id="X3aqsmZk4e3b6nWdcb5C-60" value="" style="shape=partialRectangle;collapsible=0;dropTarget=0;pointerEvents=0;fillColor=none;top=0;left=0;bottom=0;right=0;points=[[0,0.5],[1,0.5]];portConstraint=eastwest;" vertex="1" parent="X3aqsmZk4e3b6nWdcb5C-50">
          <mxGeometry y="120" width="180" height="30" as="geometry" />
        </mxCell>
        <mxCell id="X3aqsmZk4e3b6nWdcb5C-61" value="" style="shape=partialRectangle;connectable=0;fillColor=none;top=0;left=0;bottom=0;right=0;editable=1;overflow=hidden;" vertex="1" parent="X3aqsmZk4e3b6nWdcb5C-60">
          <mxGeometry width="30" height="30" as="geometry" />
        </mxCell>
        <mxCell id="X3aqsmZk4e3b6nWdcb5C-62" value="penerbit" style="shape=partialRectangle;connectable=0;fillColor=none;top=0;left=0;bottom=0;right=0;align=left;spacingLeft=6;overflow=hidden;" vertex="1" parent="X3aqsmZk4e3b6nWdcb5C-60">
          <mxGeometry x="30" width="150" height="30" as="geometry" />
        </mxCell>
        <mxCell id="X3aqsmZk4e3b6nWdcb5C-63" value="" style="shape=partialRectangle;collapsible=0;dropTarget=0;pointerEvents=0;fillColor=none;top=0;left=0;bottom=0;right=0;points=[[0,0.5],[1,0.5]];portConstraint=eastwest;" vertex="1" parent="X3aqsmZk4e3b6nWdcb5C-50">
          <mxGeometry y="150" width="180" height="30" as="geometry" />
        </mxCell>
        <mxCell id="X3aqsmZk4e3b6nWdcb5C-64" value="" style="shape=partialRectangle;connectable=0;fillColor=none;top=0;left=0;bottom=0;right=0;editable=1;overflow=hidden;" vertex="1" parent="X3aqsmZk4e3b6nWdcb5C-63">
          <mxGeometry width="30" height="30" as="geometry" />
        </mxCell>
        <mxCell id="X3aqsmZk4e3b6nWdcb5C-65" value="pengarang" style="shape=partialRectangle;connectable=0;fillColor=none;top=0;left=0;bottom=0;right=0;align=left;spacingLeft=6;overflow=hidden;" vertex="1" parent="X3aqsmZk4e3b6nWdcb5C-63">
          <mxGeometry x="30" width="150" height="30" as="geometry" />
        </mxCell>
        <mxCell id="X3aqsmZk4e3b6nWdcb5C-66" value="" style="shape=partialRectangle;collapsible=0;dropTarget=0;pointerEvents=0;fillColor=none;top=0;left=0;bottom=0;right=0;points=[[0,0.5],[1,0.5]];portConstraint=eastwest;" vertex="1" parent="X3aqsmZk4e3b6nWdcb5C-50">
          <mxGeometry y="180" width="180" height="30" as="geometry" />
        </mxCell>
        <mxCell id="X3aqsmZk4e3b6nWdcb5C-67" value="" style="shape=partialRectangle;connectable=0;fillColor=none;top=0;left=0;bottom=0;right=0;editable=1;overflow=hidden;" vertex="1" parent="X3aqsmZk4e3b6nWdcb5C-66">
          <mxGeometry width="30" height="30" as="geometry" />
        </mxCell>
        <mxCell id="X3aqsmZk4e3b6nWdcb5C-68" value="" style="shape=partialRectangle;connectable=0;fillColor=none;top=0;left=0;bottom=0;right=0;align=left;spacingLeft=6;overflow=hidden;" vertex="1" parent="X3aqsmZk4e3b6nWdcb5C-66">
          <mxGeometry x="30" width="150" height="30" as="geometry" />
        </mxCell>
        <mxCell id="X3aqsmZk4e3b6nWdcb5C-69" value="&lt;font style=&quot;font-size: 18px&quot;&gt;SNOWFLAKE SCHEMA DATA WAREHOUSE PERPUSTAKAAN &lt;br&gt;KELOMPOK 6&lt;/font&gt;" style="text;html=1;resizable=0;autosize=1;align=center;verticalAlign=middle;points=[];fillColor=none;strokeColor=none;rounded=0;startSize=30;strokeWidth=13;" vertex="1" parent="X3aqsmZk4e3b6nWdcb5C-1">
          <mxGeometry x="-40" y="120" width="530" height="40" as="geometry" />
        </mxCell>
        <mxCell id="X3aqsmZk4e3b6nWdcb5C-70" value="Denda" style="shape=table;startSize=30;container=1;collapsible=1;childLayout=tableLayout;fixedRows=1;rowLines=0;fontStyle=1;align=center;resizeLast=1;rounded=0;" vertex="1" parent="X3aqsmZk4e3b6nWdcb5C-1">
          <mxGeometry x="160" y="295" width="180" height="160" as="geometry" />
        </mxCell>
        <mxCell id="X3aqsmZk4e3b6nWdcb5C-71" value="" style="shape=partialRectangle;collapsible=0;dropTarget=0;pointerEvents=0;fillColor=none;top=0;left=0;bottom=1;right=0;points=[[0,0.5],[1,0.5]];portConstraint=eastwest;" vertex="1" parent="X3aqsmZk4e3b6nWdcb5C-70">
          <mxGeometry y="30" width="180" height="30" as="geometry" />
        </mxCell>
        <mxCell id="X3aqsmZk4e3b6nWdcb5C-72" value="PK" style="shape=partialRectangle;connectable=0;fillColor=none;top=0;left=0;bottom=0;right=0;fontStyle=1;overflow=hidden;" vertex="1" parent="X3aqsmZk4e3b6nWdcb5C-71">
          <mxGeometry width="30" height="30" as="geometry" />
        </mxCell>
        <mxCell id="X3aqsmZk4e3b6nWdcb5C-73" value="id_denda" style="shape=partialRectangle;connectable=0;fillColor=none;top=0;left=0;bottom=0;right=0;align=left;spacingLeft=6;fontStyle=5;overflow=hidden;" vertex="1" parent="X3aqsmZk4e3b6nWdcb5C-71">
          <mxGeometry x="30" width="150" height="30" as="geometry" />
        </mxCell>
        <mxCell id="X3aqsmZk4e3b6nWdcb5C-74" value="" style="shape=partialRectangle;collapsible=0;dropTarget=0;pointerEvents=0;fillColor=none;top=0;left=0;bottom=0;right=0;points=[[0,0.5],[1,0.5]];portConstraint=eastwest;" vertex="1" parent="X3aqsmZk4e3b6nWdcb5C-70">
          <mxGeometry y="60" width="180" height="30" as="geometry" />
        </mxCell>
        <mxCell id="X3aqsmZk4e3b6nWdcb5C-75" value="" style="shape=partialRectangle;connectable=0;fillColor=none;top=0;left=0;bottom=0;right=0;editable=1;overflow=hidden;" vertex="1" parent="X3aqsmZk4e3b6nWdcb5C-74">
          <mxGeometry width="30" height="30" as="geometry" />
        </mxCell>
        <mxCell id="X3aqsmZk4e3b6nWdcb5C-76" value="jenis_denda" style="shape=partialRectangle;connectable=0;fillColor=none;top=0;left=0;bottom=0;right=0;align=left;spacingLeft=6;overflow=hidden;" vertex="1" parent="X3aqsmZk4e3b6nWdcb5C-74">
          <mxGeometry x="30" width="150" height="30" as="geometry" />
        </mxCell>
        <mxCell id="X3aqsmZk4e3b6nWdcb5C-77" value="" style="shape=partialRectangle;collapsible=0;dropTarget=0;pointerEvents=0;fillColor=none;top=0;left=0;bottom=0;right=0;points=[[0,0.5],[1,0.5]];portConstraint=eastwest;" vertex="1" parent="X3aqsmZk4e3b6nWdcb5C-70">
          <mxGeometry y="90" width="180" height="30" as="geometry" />
        </mxCell>
        <mxCell id="X3aqsmZk4e3b6nWdcb5C-78" value="" style="shape=partialRectangle;connectable=0;fillColor=none;top=0;left=0;bottom=0;right=0;editable=1;overflow=hidden;" vertex="1" parent="X3aqsmZk4e3b6nWdcb5C-77">
          <mxGeometry width="30" height="30" as="geometry" />
        </mxCell>
        <mxCell id="X3aqsmZk4e3b6nWdcb5C-79" value="keterangan_denda" style="shape=partialRectangle;connectable=0;fillColor=none;top=0;left=0;bottom=0;right=0;align=left;spacingLeft=6;overflow=hidden;" vertex="1" parent="X3aqsmZk4e3b6nWdcb5C-77">
          <mxGeometry x="30" width="150" height="30" as="geometry" />
        </mxCell>
        <mxCell id="X3aqsmZk4e3b6nWdcb5C-80" value="" style="shape=partialRectangle;collapsible=0;dropTarget=0;pointerEvents=0;fillColor=none;top=0;left=0;bottom=0;right=0;points=[[0,0.5],[1,0.5]];portConstraint=eastwest;" vertex="1" parent="X3aqsmZk4e3b6nWdcb5C-70">
          <mxGeometry y="120" width="180" height="30" as="geometry" />
        </mxCell>
        <mxCell id="X3aqsmZk4e3b6nWdcb5C-81" value="" style="shape=partialRectangle;connectable=0;fillColor=none;top=0;left=0;bottom=0;right=0;editable=1;overflow=hidden;" vertex="1" parent="X3aqsmZk4e3b6nWdcb5C-80">
          <mxGeometry width="30" height="30" as="geometry" />
        </mxCell>
        <mxCell id="X3aqsmZk4e3b6nWdcb5C-82" value="biaya" style="shape=partialRectangle;connectable=0;fillColor=none;top=0;left=0;bottom=0;right=0;align=left;spacingLeft=6;overflow=hidden;" vertex="1" parent="X3aqsmZk4e3b6nWdcb5C-80">
          <mxGeometry x="30" width="150" height="30" as="geometry" />
        </mxCell>
        <mxCell id="X3aqsmZk4e3b6nWdcb5C-83" value="Petugas" style="shape=table;startSize=30;container=1;collapsible=1;childLayout=tableLayout;fixedRows=1;rowLines=0;fontStyle=1;align=center;resizeLast=1;rounded=0;" vertex="1" parent="X3aqsmZk4e3b6nWdcb5C-1">
          <mxGeometry x="900" y="295" width="180" height="240" as="geometry" />
        </mxCell>
        <mxCell id="X3aqsmZk4e3b6nWdcb5C-84" value="" style="shape=partialRectangle;collapsible=0;dropTarget=0;pointerEvents=0;fillColor=none;top=0;left=0;bottom=1;right=0;points=[[0,0.5],[1,0.5]];portConstraint=eastwest;" vertex="1" parent="X3aqsmZk4e3b6nWdcb5C-83">
          <mxGeometry y="30" width="180" height="30" as="geometry" />
        </mxCell>
        <mxCell id="X3aqsmZk4e3b6nWdcb5C-85" value="PK" style="shape=partialRectangle;connectable=0;fillColor=none;top=0;left=0;bottom=0;right=0;fontStyle=1;overflow=hidden;" vertex="1" parent="X3aqsmZk4e3b6nWdcb5C-84">
          <mxGeometry width="30" height="30" as="geometry" />
        </mxCell>
        <mxCell id="X3aqsmZk4e3b6nWdcb5C-86" value="id_petugas" style="shape=partialRectangle;connectable=0;fillColor=none;top=0;left=0;bottom=0;right=0;align=left;spacingLeft=6;fontStyle=5;overflow=hidden;" vertex="1" parent="X3aqsmZk4e3b6nWdcb5C-84">
          <mxGeometry x="30" width="150" height="30" as="geometry" />
        </mxCell>
        <mxCell id="X3aqsmZk4e3b6nWdcb5C-87" value="" style="shape=partialRectangle;collapsible=0;dropTarget=0;pointerEvents=0;fillColor=none;top=0;left=0;bottom=0;right=0;points=[[0,0.5],[1,0.5]];portConstraint=eastwest;" vertex="1" parent="X3aqsmZk4e3b6nWdcb5C-83">
          <mxGeometry y="60" width="180" height="30" as="geometry" />
        </mxCell>
        <mxCell id="X3aqsmZk4e3b6nWdcb5C-88" value="" style="shape=partialRectangle;connectable=0;fillColor=none;top=0;left=0;bottom=0;right=0;editable=1;overflow=hidden;" vertex="1" parent="X3aqsmZk4e3b6nWdcb5C-87">
          <mxGeometry width="30" height="30" as="geometry" />
        </mxCell>
        <mxCell id="X3aqsmZk4e3b6nWdcb5C-89" value="nama_petugas" style="shape=partialRectangle;connectable=0;fillColor=none;top=0;left=0;bottom=0;right=0;align=left;spacingLeft=6;overflow=hidden;" vertex="1" parent="X3aqsmZk4e3b6nWdcb5C-87">
          <mxGeometry x="30" width="150" height="30" as="geometry" />
        </mxCell>
        <mxCell id="X3aqsmZk4e3b6nWdcb5C-90" value="" style="shape=partialRectangle;collapsible=0;dropTarget=0;pointerEvents=0;fillColor=none;top=0;left=0;bottom=0;right=0;points=[[0,0.5],[1,0.5]];portConstraint=eastwest;" vertex="1" parent="X3aqsmZk4e3b6nWdcb5C-83">
          <mxGeometry y="90" width="180" height="30" as="geometry" />
        </mxCell>
        <mxCell id="X3aqsmZk4e3b6nWdcb5C-91" value="" style="shape=partialRectangle;connectable=0;fillColor=none;top=0;left=0;bottom=0;right=0;editable=1;overflow=hidden;" vertex="1" parent="X3aqsmZk4e3b6nWdcb5C-90">
          <mxGeometry width="30" height="30" as="geometry" />
        </mxCell>
        <mxCell id="X3aqsmZk4e3b6nWdcb5C-92" value="no_identitas_petugas" style="shape=partialRectangle;connectable=0;fillColor=none;top=0;left=0;bottom=0;right=0;align=left;spacingLeft=6;overflow=hidden;" vertex="1" parent="X3aqsmZk4e3b6nWdcb5C-90">
          <mxGeometry x="30" width="150" height="30" as="geometry" />
        </mxCell>
        <mxCell id="X3aqsmZk4e3b6nWdcb5C-93" value="" style="shape=partialRectangle;collapsible=0;dropTarget=0;pointerEvents=0;fillColor=none;top=0;left=0;bottom=0;right=0;points=[[0,0.5],[1,0.5]];portConstraint=eastwest;" vertex="1" parent="X3aqsmZk4e3b6nWdcb5C-83">
          <mxGeometry y="120" width="180" height="30" as="geometry" />
        </mxCell>
        <mxCell id="X3aqsmZk4e3b6nWdcb5C-94" value="" style="shape=partialRectangle;connectable=0;fillColor=none;top=0;left=0;bottom=0;right=0;editable=1;overflow=hidden;" vertex="1" parent="X3aqsmZk4e3b6nWdcb5C-93">
          <mxGeometry width="30" height="30" as="geometry" />
        </mxCell>
        <mxCell id="X3aqsmZk4e3b6nWdcb5C-95" value="alamat_petugas" style="shape=partialRectangle;connectable=0;fillColor=none;top=0;left=0;bottom=0;right=0;align=left;spacingLeft=6;overflow=hidden;" vertex="1" parent="X3aqsmZk4e3b6nWdcb5C-93">
          <mxGeometry x="30" width="150" height="30" as="geometry" />
        </mxCell>
        <mxCell id="X3aqsmZk4e3b6nWdcb5C-96" value="" style="shape=partialRectangle;collapsible=0;dropTarget=0;pointerEvents=0;fillColor=none;top=0;left=0;bottom=0;right=0;points=[[0,0.5],[1,0.5]];portConstraint=eastwest;" vertex="1" parent="X3aqsmZk4e3b6nWdcb5C-83">
          <mxGeometry y="150" width="180" height="30" as="geometry" />
        </mxCell>
        <mxCell id="X3aqsmZk4e3b6nWdcb5C-97" value="" style="shape=partialRectangle;connectable=0;fillColor=none;top=0;left=0;bottom=0;right=0;editable=1;overflow=hidden;" vertex="1" parent="X3aqsmZk4e3b6nWdcb5C-96">
          <mxGeometry width="30" height="30" as="geometry" />
        </mxCell>
        <mxCell id="X3aqsmZk4e3b6nWdcb5C-98" value="no_hp_petugas" style="shape=partialRectangle;connectable=0;fillColor=none;top=0;left=0;bottom=0;right=0;align=left;spacingLeft=6;overflow=hidden;" vertex="1" parent="X3aqsmZk4e3b6nWdcb5C-96">
          <mxGeometry x="30" width="150" height="30" as="geometry" />
        </mxCell>
        <mxCell id="X3aqsmZk4e3b6nWdcb5C-99" value="" style="shape=partialRectangle;collapsible=0;dropTarget=0;pointerEvents=0;fillColor=none;top=0;left=0;bottom=0;right=0;points=[[0,0.5],[1,0.5]];portConstraint=eastwest;" vertex="1" parent="X3aqsmZk4e3b6nWdcb5C-83">
          <mxGeometry y="180" width="180" height="30" as="geometry" />
        </mxCell>
        <mxCell id="X3aqsmZk4e3b6nWdcb5C-100" value="" style="shape=partialRectangle;connectable=0;fillColor=none;top=0;left=0;bottom=0;right=0;editable=1;overflow=hidden;" vertex="1" parent="X3aqsmZk4e3b6nWdcb5C-99">
          <mxGeometry width="30" height="30" as="geometry" />
        </mxCell>
        <mxCell id="X3aqsmZk4e3b6nWdcb5C-101" value="email_petugas" style="shape=partialRectangle;connectable=0;fillColor=none;top=0;left=0;bottom=0;right=0;align=left;spacingLeft=6;overflow=hidden;" vertex="1" parent="X3aqsmZk4e3b6nWdcb5C-99">
          <mxGeometry x="30" width="150" height="30" as="geometry" />
        </mxCell>
        <mxCell id="X3aqsmZk4e3b6nWdcb5C-102" value="" style="shape=partialRectangle;collapsible=0;dropTarget=0;pointerEvents=0;fillColor=none;top=0;left=0;bottom=0;right=0;points=[[0,0.5],[1,0.5]];portConstraint=eastwest;" vertex="1" parent="X3aqsmZk4e3b6nWdcb5C-83">
          <mxGeometry y="210" width="180" height="30" as="geometry" />
        </mxCell>
        <mxCell id="X3aqsmZk4e3b6nWdcb5C-103" value="" style="shape=partialRectangle;connectable=0;fillColor=none;top=0;left=0;bottom=0;right=0;editable=1;overflow=hidden;" vertex="1" parent="X3aqsmZk4e3b6nWdcb5C-102">
          <mxGeometry width="30" height="30" as="geometry" />
        </mxCell>
        <mxCell id="X3aqsmZk4e3b6nWdcb5C-104" value="" style="shape=partialRectangle;connectable=0;fillColor=none;top=0;left=0;bottom=0;right=0;align=left;spacingLeft=6;overflow=hidden;" vertex="1" parent="X3aqsmZk4e3b6nWdcb5C-102">
          <mxGeometry x="30" width="150" height="30" as="geometry" />
        </mxCell>
      </root>
    </mxGraphModel>
  </diagram>
</mxfile>
